 
After their high school basketball coach passes away, five good friends and former teammates reunite for a Fourth of July holiday weekend.


  
http://www.imdb.com/title/tt1375670/
Genre:Comedy 


 
Video
ID : 0
Format : MPEG-4 Visual
Format profile : Advanced Simple@L5
Format settings, BVOP : Yes
Format settings, QPel : No
Format settings, GMC : No warppoints
Format settings, Matrix : Custom
Codec ID : XVID
Codec ID/Hint : XviD
Duration : 1h 38mn
Bit rate : 860 Kbps
Width : 624 pixels
Height : 336 pixels
Display aspect ratio : 1.857
Frame rate : 25.000 fps
Resolution : 8 bits
Colorimetry : 4:2:0
Scan type : Progressive
Bits/(Pixel*Frame) : 0.164
Stream size : 604 MiB (72%)
Writing library : XviD 1.2.1 (UTC 2008-12-04)

Audio
ID : 1
Format : AC-3
Format/Info : Audio Coding 3
Codec ID : 2000
Duration : 1h 38mn
Bit rate mode : Constant
Bit rate : 320 Kbps
Channel(s) : 2 channels
Channel positions : L R
Sampling rate : 48.0 KHz
Video delay : 18ms
Stream size : 225 MiB (27%)
Alignment : Split accross interleaves
Interleave, duration : 40 ms (1.00 video frame)
Interleave, preload duration : 500 ms




 
http://thepiratebay.org/user/hiest






Screenshots:
 
http://postimg.com/image/21000/20544.jpg





Release Notes:

sync goes off a lil bit in the beginning but comes back.